<svg width="58" height="55" viewBox="0 0 58 55" fill="none" xmlns="http://www.w3.org/2000/svg">
<g filter="url(#filter0_d_7_390)">
<path d="M29 0.625C15.5598 0.625 4.625 11.5598 4.625 25C4.625 38.4402 15.5598 49.375 29 49.375C42.4402 49.375 53.375 38.4402 53.375 25C53.375 11.5598 42.4402 0.625 29 0.625ZM31.7305 35.6863C31.2137 36.0613 30.657 36.4539 30.0535 36.8582C29.7429 37.0709 29.3753 37.1847 28.9988 37.1847C28.6224 37.1847 28.2547 37.0709 27.9441 36.8582C23.3387 33.7316 21.3441 31.5848 20.2449 30.2477C17.9012 27.3918 16.7785 24.4586 16.8113 21.2828V21.2078C16.814 21.1164 16.8433 21.0277 16.8957 20.9528C16.9481 20.8778 17.0213 20.8198 17.1062 20.7859C17.1912 20.752 17.2842 20.7437 17.3738 20.7621C17.4634 20.7804 17.5457 20.8245 17.6105 20.8891L31.7844 34.975C31.8325 35.0228 31.8697 35.0804 31.8934 35.144C31.9171 35.2075 31.9267 35.2755 31.9216 35.3431C31.9164 35.4107 31.8967 35.4764 31.8637 35.5357C31.8307 35.595 31.7853 35.6463 31.7305 35.6863ZM39.6992 37.5754C39.3476 37.9268 38.8709 38.1241 38.3738 38.1241C37.8768 38.1241 37.4 37.9268 37.0484 37.5754L16.4234 16.9504C16.0866 16.5959 15.9017 16.1239 15.9079 15.6349C15.9142 15.146 16.1112 14.6789 16.4569 14.3331C16.8027 13.9874 17.2698 13.7904 17.7588 13.7841C18.2477 13.7778 18.7197 13.9628 19.0742 14.2996L39.6992 34.9246C40.0507 35.2761 40.2483 35.7527 40.2485 36.2498C40.2488 36.7468 40.0516 37.2236 39.7004 37.5754H39.6992ZM38.0469 29.8855C38.007 29.9396 37.9558 29.9843 37.8968 30.0164C37.8378 30.0485 37.7725 30.0673 37.7054 30.0714C37.6384 30.0755 37.5713 30.0649 37.5088 30.0403C37.4463 30.0157 37.39 29.9777 37.3438 29.9289L22.8125 15.4902C22.7463 15.425 22.7009 15.3416 22.6822 15.2505C22.6635 15.1595 22.6723 15.0649 22.7075 14.9789C22.7427 14.8928 22.8026 14.8192 22.8798 14.7673C22.9569 14.7154 23.0477 14.6877 23.1406 14.6875H23.3223C25.7129 14.6875 27.4238 15.9344 28.4914 17.0805C28.5565 17.1507 28.6353 17.2067 28.723 17.245C28.8108 17.2833 28.9055 17.3031 29.0012 17.3031C29.0969 17.3031 29.1916 17.2833 29.2793 17.245C29.367 17.2067 29.4459 17.1507 29.5109 17.0805C30.5785 15.9344 32.2895 14.6875 34.6801 14.6875C38.232 14.6875 41.1512 17.6488 41.1875 21.2887C41.218 24.3273 40.1891 27.1445 38.0469 29.8855Z" fill="white"/>
</g>
<defs>
<filter id="filter0_d_7_390" x="0.625" y="0.625" width="56.75" height="56.75" filterUnits="userSpaceOnUse" color-interpolation-filters="sRGB">
<feFlood flood-opacity="0" result="BackgroundImageFix"/>
<feColorMatrix in="SourceAlpha" type="matrix" values="0 0 0 0 0 0 0 0 0 0 0 0 0 0 0 0 0 0 127 0" result="hardAlpha"/>
<feOffset dy="4"/>
<feGaussianBlur stdDeviation="2"/>
<feComposite in2="hardAlpha" operator="out"/>
<feColorMatrix type="matrix" values="0 0 0 0 0 0 0 0 0 0 0 0 0 0 0 0 0 0 0.25 0"/>
<feBlend mode="normal" in2="BackgroundImageFix" result="effect1_dropShadow_7_390"/>
<feBlend mode="normal" in="SourceGraphic" in2="effect1_dropShadow_7_390" result="shape"/>
</filter>
</defs>
</svg>
