<svg width="50" height="50" viewBox="0 0 50 50" fill="none" xmlns="http://www.w3.org/2000/svg">
<path d="M25 0.625C11.5598 0.625 0.625 11.5598 0.625 25C0.625 38.4402 11.5598 49.375 25 49.375C38.4402 49.375 49.375 38.4402 49.375 25C49.375 11.5598 38.4402 0.625 25 0.625ZM33.7527 30.2523C32.6535 31.593 30.659 33.7363 26.0535 36.8629C25.7429 37.0756 25.3753 37.1894 24.9988 37.1894C24.6224 37.1894 24.2547 37.0756 23.9441 36.8629C19.3387 33.7363 17.3441 31.5895 16.2449 30.2523C13.9012 27.3965 12.7785 24.4633 12.8113 21.2875C12.8477 17.6477 15.7668 14.6863 19.3188 14.6863C21.7094 14.6863 23.4203 15.932 24.4867 17.0781C24.5524 17.1476 24.6316 17.203 24.7195 17.2408C24.8073 17.2787 24.902 17.2982 24.9977 17.2982C25.0933 17.2982 25.188 17.2787 25.2758 17.2408C25.3637 17.203 25.4429 17.1476 25.5086 17.0781C26.5762 15.932 28.2859 14.6863 30.6766 14.6863C34.2285 14.6863 37.1477 17.6477 37.184 21.2875C37.2191 24.4633 36.0953 27.3965 33.7527 30.2523Z" fill="white"/>
</svg>
