<svg width="200" height="200" viewBox="0 0 200 200" fill="none" xmlns="http://www.w3.org/2000/svg">
<circle cx="28.3019" cy="28.3019" r="28.3019" fill="#E00000"/>
<circle cx="99.9998" cy="28.3019" r="28.3019" fill="#8C2E2E"/>
<circle cx="171.698" cy="28.3019" r="28.3019" fill="#E00000"/>
<circle cx="28.3019" cy="99.9999" r="28.3019" fill="#8C2E2E"/>
<circle cx="171.698" cy="171.698" r="28.3019" fill="#E00000"/>
<path d="M31.3749 71.9965V71.9965C53.9488 74.2067 73.1604 55.7322 71.8344 33.0891L71.7265 31.2478L96.5793 55.8583L95.4302 55.7999C72.6688 54.6418 54.1579 73.9103 56.2277 96.607V96.607L31.3749 71.9965Z" fill="#8C2E2E"/>
<circle cx="171.698" cy="99.9999" r="28.3019" fill="#8C2E2E"/>
<circle cx="99.9998" cy="171.698" r="28.3019" fill="#8C2E2E"/>
<path d="M103.073 143.694V143.694C125.647 145.905 144.858 127.43 143.532 104.787L143.424 102.946L168.277 127.556L167.128 127.498C144.367 126.34 125.856 145.608 127.926 168.305V168.305L103.073 143.694Z" fill="#8C2E2E"/>
<circle cx="99.9998" cy="99.9999" r="28.3019" fill="#E00000"/>
<circle cx="28.3019" cy="171.698" r="28.3019" fill="#E00000"/>
<path d="M31.3749 143.694V143.694C53.9488 145.905 73.1604 127.43 71.8344 104.787L71.7265 102.946L96.5793 127.556L95.4302 127.498C72.6688 126.34 54.1579 145.608 56.2277 168.305V168.305L31.3749 143.694Z" fill="#E00000"/>
</svg>
